# xmcd
#
# Track frame offsets: 
#        150
#        15032
#        29657
#        44660
#        59125
#        76250
#        87025
#        100685
#        117095
#        133167
#
# Disc length: 2017 seconds
#
# Revision: 2
# Processed by: cddbd v1.4PL0 Copyright (c) Steve Scherf et al.
# Submitted via: ExactAudioCopy v0.90b4
#
DISCID=7a07df0a
DTITLE=Vern Gosdin - Nickels And Dimes And Love
DYEAR=1900
DGENRE=Country
TTITLE0=Nickles And Dimes And Love
TTITLE1=Back When
TTITLE2=Where The Tall Grass Grows
TTITLE3=Bury Me In A Jukebox
TTITLE4=Any Old Miracle
TTITLE5=I Like My Country Music Kinda Rock
TTITLE6=Two Good People With A Love Gone Bad (With Janie Frickie)
TTITLE7=What Are We Gonna Do About Me
TTITLE8=Gone In A Heartbeat
TTITLE9=A Better Time To Say Goodbye
EXTD=
EXTT0=
EXTT1=
EXTT2=
EXTT3=
EXTT4=
EXTT5=
EXTT6=
EXTT7=
EXTT8=
EXTT9=
PLAYORDER=
